<svg width="18" height="18" viewBox="0 0 18 18" fill="none" xmlns="http://www.w3.org/2000/svg">
<g id="&#233;&#161;&#181;&#233;&#157;&#162;-1">
<g id="&#228;&#184;&#170;&#228;&#186;&#186;">
<path id="&#232;&#183;&#175;&#229;&#190;&#132;" d="M13.71 10.5475C12.505 11.7535 10.8395 12.5 9 12.5C7.1605 12.5 5.495 11.754 4.29 10.5475C2.357 11.2535 1.0015 13.0755 1 15.215V17H17V15.215C16.9985 13.0755 15.6435 11.2535 13.7445 10.5585L13.71 10.5475Z" fill="white"/>
<path id="&#232;&#183;&#175;&#229;&#190;&#132;_2" d="M13.9068 5.9075C13.9068 8.618 11.7098 10.815 8.9993 10.815C6.2888 10.815 4.0918 8.618 4.0918 5.9075C4.0918 3.197 6.2888 1 8.9993 1C9.0003 1 9.0008 1 9.0018 1C11.7108 1 13.9068 3.196 13.9068 5.905C13.9068 5.906 13.9068 5.9075 13.9068 5.9075Z" fill="white"/>
</g>
</g>
</svg>
