<svg width="14" height="14" viewBox="0 0 14 14" fill="none" xmlns="http://www.w3.org/2000/svg">
<g id="Frame" clip-path="url(#clip0_49_3529)">
<path id="Vector" d="M9.43382 7.9205C14.8473 7.25404 13.8603 2.28696 13.8603 2.28696H11.4268C11.5182 1.60198 11.5712 0.8085 11.5732 0.00247917V0H2.42682C2.42872 0.807917 2.4818 1.60154 2.5833 2.38L2.57324 2.28652H0.139717C0.139717 2.28652 -0.8467 7.24646 4.5662 7.92006C4.94828 8.48444 5.36974 8.97648 5.84122 9.41544L5.84632 9.41996C5.78624 10.2336 5.45986 12.5735 3.57278 12.5735H2.42624V14H11.5728V12.5735L9.98624 12.5199C8.4862 12.18 8.2062 10.1602 8.15282 9.41996C8.62695 8.97884 9.04991 8.48573 9.4137 7.94996L9.43266 7.92006L9.43382 7.9205ZM11.0002 4.41394L11.3203 3.6206H12.5602C12.5122 4.29698 12.2693 4.90846 11.8878 5.40852L11.8937 5.4005C11.4852 5.86595 10.9515 6.20419 10.3562 6.37496L10.3333 6.3805C10.5862 5.82794 10.8147 5.17256 10.9833 4.49342L11.0002 4.4135V4.41394ZM2.10672 5.4005C1.7171 4.88812 1.48566 4.27308 1.44084 3.63096L1.4404 3.62046H2.66686L3.00038 4.41394C3.20397 5.19006 3.44547 5.85506 3.73888 6.49148L3.7068 6.41404C3.06397 6.23394 2.51943 5.87956 2.11036 5.40487L2.10686 5.40094L2.10672 5.4005ZM8.0538 5.98048L7.12032 5.52694C7.08346 5.50706 7.04218 5.49678 7.0003 5.49704C6.95626 5.49704 6.9147 5.50798 6.87882 5.52796L6.88028 5.52752L5.9468 5.98106C5.90904 5.99781 5.86752 6.00426 5.82646 5.99975C5.7854 5.99525 5.74627 5.97995 5.71303 5.95541C5.6798 5.93088 5.65366 5.89798 5.63727 5.86007C5.62087 5.82216 5.61481 5.78058 5.6197 5.73956V5.74044L5.76626 4.69394C5.771 4.66027 5.76807 4.62597 5.75769 4.5936C5.74731 4.56122 5.72975 4.53161 5.70632 4.50698L4.99976 3.74048C4.97168 3.71111 4.95198 3.67475 4.9427 3.63519C4.93343 3.59563 4.93492 3.5543 4.94702 3.51551C4.95912 3.47672 4.98139 3.44188 5.01152 3.41461C5.04164 3.38734 5.07852 3.36863 5.11832 3.36044H5.11978L6.16628 3.16706C6.23876 3.15904 6.29972 3.11602 6.33224 3.05506L6.33282 3.05404L6.83274 2.12056C6.85204 2.0844 6.88078 2.05414 6.91591 2.03301C6.95103 2.01188 6.99123 2.00066 7.03222 2.00056C7.07322 2.00045 7.11347 2.01146 7.14871 2.03241C7.18394 2.05336 7.21284 2.08348 7.23232 2.11954L7.23276 2.12056L7.73282 3.0539C7.76432 3.11456 7.8228 3.15744 7.89178 3.16706H7.8928L8.9393 3.36044C8.97936 3.36821 9.01658 3.38665 9.04704 3.41381C9.07749 3.44097 9.10005 3.47585 9.11234 3.51476C9.12463 3.55368 9.12619 3.59518 9.11686 3.63491C9.10753 3.67463 9.08765 3.71111 9.05932 3.74048L8.32578 4.50698C8.28583 4.54909 8.26363 4.60497 8.2638 4.66302C8.2638 4.67396 8.26482 4.68446 8.2657 4.6951V4.69394L8.41226 5.74044C8.42187 5.78611 8.41756 5.83362 8.39989 5.87682C8.38223 5.92002 8.35201 5.95693 8.31314 5.98278C8.27427 6.00863 8.22855 6.02222 8.18188 6.02181C8.1352 6.0214 8.08973 6.007 8.05132 5.98048L8.0522 5.98106L8.05365 5.98048H8.0538Z" fill="#B1BAD3"/>
</g>
<defs>
<clipPath id="clip0_49_3529">
<rect width="14" height="14" fill="white"/>
</clipPath>
</defs>
</svg>
