<svg width="14" height="14" viewBox="0 0 14 14" fill="none" xmlns="http://www.w3.org/2000/svg">
<g id="Frame" clip-path="url(#clip0_49_3539)">
<path id="Vector" fill-rule="evenodd" clip-rule="evenodd" d="M2.86147 0.834747L0 5.36987L1.08456 6.05412L3.94581 1.519L2.86147 0.834747ZM5.30491 1.81759H8.80206L12.6492 7.35503L6.64541 3.50809L5.42128 5.43156C5.12991 5.95612 4.48875 6.0725 4.02238 5.78134C3.67259 5.54815 3.49781 5.08178 3.556 4.67381C3.556 4.55722 3.61441 4.44062 3.67259 4.32403L5.30491 1.81759ZM4.54694 6.77228C4.19694 6.77228 3.84738 6.65547 3.556 6.48068C3.26463 6.30568 3.03144 6.07272 2.91484 5.78134L2.15687 7.00525C2.21506 7.00525 3.61397 7.06365 4.02194 8.11278C4.37194 8.11278 4.66331 8.11278 5.01288 8.34597C5.30447 8.52097 5.59584 8.87053 5.71244 9.22031C6.06222 9.22031 6.412 9.3369 6.70337 9.51168C7.63591 10.0362 7.9275 11.2604 7.34453 12.1347L7.22794 12.3679L8.27706 13.0091C8.74344 13.3007 9.38459 13.1841 9.67619 12.6593C9.79216 12.4561 9.83787 12.2203 9.80624 11.9884C9.7746 11.7566 9.66738 11.5417 9.50119 11.377L9.96756 11.6686C10.4339 11.9599 11.0751 11.7849 11.3665 11.3186C11.6578 10.8524 11.4831 10.2112 11.0167 9.91965L11.3083 10.0947C11.7744 10.386 12.4156 10.2697 12.7072 9.74487C12.9986 9.2785 12.8822 8.63734 12.3572 8.34597L6.70381 4.84859L6.06266 5.89793C5.82947 6.4225 5.18831 6.77228 4.54716 6.77228H4.54694ZM6.35381 10.2112C5.824 9.8934 5.19816 10.1533 4.95709 10.4219C5.22266 10.0142 5.04175 9.43119 4.60491 9.10372C4.43013 8.98712 4.25534 8.92872 4.02216 8.92872C3.67806 8.92872 3.33419 9.09803 3.15656 9.38087C3.43678 8.91581 3.318 8.28406 2.85644 7.938C2.68144 7.8214 2.50666 7.763 2.27347 7.763C1.92369 7.763 1.57412 7.938 1.39912 8.22937L1.22413 8.46256L0.757969 9.22031C0.466594 9.68668 0.582969 10.3278 1.10775 10.6776C1.28275 10.7942 1.45753 10.8526 1.6905 10.8526C1.99653 10.8526 2.30234 10.7185 2.49112 10.4902C2.46597 10.5378 2.44847 10.5873 2.44847 10.6192C2.21528 11.2022 2.44847 11.7852 2.97303 12.0181C3.45362 12.2318 4.032 12.054 4.305 11.6193C4.10375 12.0695 4.24287 12.6317 4.72172 12.9509C4.8965 13.0675 5.07128 13.1259 5.30447 13.1259C5.65447 13.1259 6.00403 12.9509 6.17881 12.6593L6.76178 11.6683C7.05316 11.1438 6.81997 10.5026 6.35381 10.2112ZM10.0229 1.53256L11.1075 0.84831L14 5.43265L12.9154 6.1169L10.0229 1.53256Z" fill="#B1BAD3"/>
</g>
<defs>
<clipPath id="clip0_49_3539">
<rect width="14" height="14" fill="white"/>
</clipPath>
</defs>
</svg>
