<svg width="14" height="14" viewBox="0 0 14 14" fill="none" xmlns="http://www.w3.org/2000/svg">
<g id="Frame" clip-path="url(#clip0_49_3535)">
<path id="Vector" d="M7 0.419119C6.937 0.416931 6.86263 0.415619 6.78781 0.415619C3.11806 0.415619 0.128187 3.32631 0.0004375 6.96499L0 6.97681C0.00249258 8.53537 0.585532 10.0371 1.63538 11.1891L1.631 11.1838C1.4805 12.0649 1.21756 12.8542 0.854 13.5844L0.876312 13.5345C1.89 13.4479 2.81837 13.1561 3.64437 12.7011L3.6085 12.719C4.58719 13.2331 5.74656 13.5345 6.97681 13.5345H7.00131H7C7.06563 13.5367 7.14306 13.538 7.2205 13.538C10.8885 13.538 13.8766 10.6264 13.9996 6.98818L14 6.97681C13.8718 3.32631 10.8819 0.416056 7.21219 0.416056C7.13738 0.416056 7.06344 0.417369 6.9895 0.419556L7.00044 0.419119H7ZM3.53019 8.22587C3.18511 8.22587 2.85416 8.08879 2.61015 7.84478C2.36614 7.60077 2.22906 7.26982 2.22906 6.92474C2.22906 6.57966 2.36614 6.24872 2.61015 6.00471C2.85416 5.7607 3.18511 5.62362 3.53019 5.62362C3.87527 5.62362 4.20621 5.7607 4.45022 6.00471C4.69423 6.24872 4.83131 6.57966 4.83131 6.92474C4.83131 7.26982 4.69423 7.60077 4.45022 7.84478C4.20621 8.08879 3.87527 8.22587 3.53019 8.22587ZM7 8.22587C6.65492 8.22587 6.32397 8.08879 6.07997 7.84478C5.83596 7.60077 5.69887 7.26982 5.69887 6.92474C5.69887 6.57966 5.83596 6.24872 6.07997 6.00471C6.32397 5.7607 6.65492 5.62362 7 5.62362C7.34508 5.62362 7.67603 5.7607 7.92003 6.00471C8.16404 6.24872 8.30113 6.57966 8.30113 6.92474C8.30113 7.26982 8.16404 7.60077 7.92003 7.84478C7.67603 8.08879 7.34508 8.22587 7 8.22587ZM10.4698 8.22587C10.1247 8.22587 9.79379 8.08879 9.54978 7.84478C9.30577 7.60077 9.16869 7.26982 9.16869 6.92474C9.16869 6.57966 9.30577 6.24872 9.54978 6.00471C9.79379 5.7607 10.1247 5.62362 10.4698 5.62362C10.8149 5.62362 11.1458 5.7607 11.3898 6.00471C11.6339 6.24872 11.7709 6.57966 11.7709 6.92474C11.7709 7.26982 11.6339 7.60077 11.3898 7.84478C11.1458 8.08879 10.8149 8.22587 10.4698 8.22587Z" fill="#B1BAD3"/>
</g>
<defs>
<clipPath id="clip0_49_3535">
<rect width="14" height="14" fill="white"/>
</clipPath>
</defs>
</svg>
