<svg width="18" height="18" viewBox="0 0 18 18" fill="none" xmlns="http://www.w3.org/2000/svg">
<g id="&#230;&#138;&#149;&#230;&#179;&#168;&#233;&#162;&#157;">
<path id="&#232;&#183;&#175;&#229;&#190;&#132;" d="M18 9C18 13.9708 13.9708 18 9 18C4.02919 18 0 13.9708 0 9C0 4.02919 4.02919 0 9 0C13.9708 0 18 4.02919 18 9Z" fill="#FF9724"/>
<path id="&#229;&#189;&#162;&#231;&#138;&#182;" d="M9.6602 13.7476V14.9778H8.57289V13.7628C7.15539 13.6503 6.12039 13.0951 5.40039 12.3301L6.2852 11.1C6.81789 11.6625 7.5902 12.1648 8.57289 12.315V9.68246C7.17058 9.32977 5.68558 8.81227 5.68558 7.03477C5.68558 5.64709 6.81789 4.53727 8.57289 4.38709V3.1344H9.6602V4.4169C10.7779 4.5294 11.6925 4.96421 12.3979 5.64709L11.4827 6.83227C10.9804 6.32996 10.3352 6.01496 9.65289 5.87996V8.22727C11.0704 8.60978 12.6004 9.14246 12.6004 10.965C12.6004 12.3526 11.7004 13.5525 9.65289 13.7476H9.6602ZM8.57289 7.94265V5.82034C7.7927 5.90302 7.3202 6.32265 7.3202 6.93802C7.3202 7.47071 7.85289 7.74015 8.57289 7.94265ZM10.9877 11.1151C10.9877 10.4851 10.4252 10.2 9.66752 9.96765V12.315C10.6052 12.18 10.9877 11.6326 10.9877 11.1151Z" fill="white"/>
</g>
</svg>
