<svg width="14" height="14" viewBox="0 0 14 14" fill="none" xmlns="http://www.w3.org/2000/svg">
<g id="Frame" clip-path="url(#clip0_49_3545)">
<path id="Vector" d="M7.00001 -0.000218391H6.98163C3.73101 -0.000218391 1.09595 2.63484 1.09595 5.88547C1.09595 5.92441 1.09638 5.96334 1.09726 6.00228V5.99659V10.8909H4.90045V6.69659H3.10976V5.99659C3.10831 5.95373 3.10758 5.91085 3.10757 5.86797C3.10757 3.73866 4.83395 2.01228 6.96326 2.01228H7.0022H7.00001H7.0372C9.16651 2.01228 10.8929 3.73866 10.8929 5.86797C10.8929 5.91303 10.892 5.95809 10.8907 6.00316V5.99659V6.69659H9.10001V10.8909H10.7507C10.3714 11.7952 9.1582 11.9877 7.00001 11.9877V14.0002C8.91932 14.0002 12.9032 14.0002 12.9032 10.197V5.99703C12.9041 5.96422 12.9041 5.92528 12.9041 5.88634C12.9041 2.63572 10.269 0.000656609 7.01838 0.000656609H6.9987H6.99957L7.00001 -0.000218391Z" fill="#B1BAD3"/>
</g>
<defs>
<clipPath id="clip0_49_3545">
<rect width="14" height="14" fill="white"/>
</clipPath>
</defs>
</svg>
