<svg width="18" height="18" viewBox="0 0 18 18" fill="none" xmlns="http://www.w3.org/2000/svg">
<path id="&#229;&#189;&#162;&#231;&#138;&#182;" d="M1.58812 0H12.7058C13.2881 0 13.7646 0.476471 13.7646 1.05882V8.47059C13.7646 9.05294 13.2881 9.52941 12.7058 9.52941H6.88224L2.65753 12.7059V9.52941H1.58812C1.00577 9.52941 0.529297 9.05294 0.529297 8.47059V1.05882C0.529297 0.476471 1.00577 0 1.58812 0ZM15.3422 18V14.8235H16.4117C16.994 14.8235 17.4705 14.3471 17.4705 13.7647V6.35294C17.4705 5.77059 16.994 5.29412 16.4117 5.29412H15.3528V9C15.3528 10.1647 14.3999 11.1176 13.2352 11.1176H7.41165L4.23518 13.5635V13.7647C4.23518 14.3471 4.71165 14.8235 5.294 14.8235H11.1175L15.3422 18Z" fill="white"/>
</svg>
