<svg width="18" height="18" viewBox="0 0 18 18" fill="none" xmlns="http://www.w3.org/2000/svg">
<g id="&#230;&#144;&#156;&#231;&#180;&#160;">
<path id="&#232;&#183;&#175;&#229;&#190;&#132;" d="M13.0304 10.8423C12.4437 11.7153 11.7153 12.4437 10.8704 13.0124L10.8423 13.0304L15.8119 18L18 15.8119L13.0304 10.8423Z" fill="white"/>
<path id="&#229;&#189;&#162;&#231;&#138;&#182;" d="M6.4968 0C2.90865 0 0 2.90865 0 6.4968C0 10.0849 2.90865 12.9936 6.4968 12.9936C10.0849 12.9936 12.9936 10.0849 12.9936 6.4968C12.9936 2.90865 10.0849 0 6.4968 0ZM6.4968 10.4061C4.33795 10.4061 2.58747 8.65565 2.58747 6.4968C2.58747 4.33795 4.33795 2.58747 6.4968 2.58747C8.65565 2.58747 10.4061 4.33795 10.4061 6.4968C10.4061 8.65565 8.65565 10.4061 6.4968 10.4061Z" fill="white"/>
</g>
</svg>
