<svg width="14" height="14" viewBox="0 0 14 14" fill="none" xmlns="http://www.w3.org/2000/svg">
<g id="Frame">
<path id="Vector" fill-rule="evenodd" clip-rule="evenodd" d="M1.23682 2.47341L7.00022 0L12.7636 2.47341C12.7636 11.5266 7 14 7 14C7 14 1.23682 11.5266 1.23682 2.47341ZM8.94469 5.44447C8.9448 5.82292 8.83449 6.19318 8.62727 6.50985C8.42005 6.82653 8.12493 7.07586 7.7781 7.22728V10.1111H6.22257V7.22706C5.90127 7.08687 5.62386 6.86242 5.41967 6.57748C5.21548 6.29254 5.09212 5.9577 5.06264 5.60839C5.03316 5.25909 5.09866 4.90831 5.2522 4.59318C5.40575 4.27804 5.64162 4.01028 5.93487 3.81822C6.22813 3.62616 6.56784 3.51695 6.91808 3.50214C7.26831 3.48733 7.61604 3.56747 7.92446 3.7341C8.23287 3.90072 8.49051 4.14761 8.67011 4.44866C8.84971 4.7497 8.94458 5.09392 8.94469 5.44447Z" fill="#B1BAD3"/>
</g>
</svg>
