<svg width="14" height="14" viewBox="0 0 14 14" fill="none" xmlns="http://www.w3.org/2000/svg">
<g id="Frame" clip-path="url(#clip0_49_3526)">
<path id="Vector" d="M12.15 4.17725C11.7004 4.17761 11.2666 4.34376 10.9318 4.64392C10.597 4.94407 10.3846 5.35714 10.3353 5.8041L10.3344 5.81241L8.92041 6.19085C8.71901 5.93021 8.44951 5.73028 8.14166 5.61313L8.12919 5.60919V4.067C8.81322 3.79094 9.28703 3.1325 9.28703 2.36294C9.28703 1.35057 8.46672 0.529816 7.45391 0.529816C7.2132 0.529816 6.97485 0.577234 6.75247 0.669363C6.53009 0.761491 6.32803 0.896525 6.15785 1.06675C5.98766 1.23698 5.85267 1.43906 5.7606 1.66147C5.66852 1.88387 5.62116 2.12223 5.62122 2.36294C5.62119 2.72815 5.73021 3.08506 5.93431 3.38791C6.13841 3.69077 6.42829 3.92579 6.76681 4.06285L6.77884 4.06722V5.56282C6.62502 5.62197 6.48066 5.70325 6.35031 5.8041L6.35425 5.80103L3.66581 4.33475C3.6688 4.28113 3.6688 4.22738 3.66581 4.17375V4.17769C3.66581 3.1651 2.8455 2.34457 1.83291 2.34457C1.59218 2.34454 1.3538 2.39193 1.1314 2.48405C0.908993 2.57617 0.706914 2.71119 0.536704 2.88142C0.366495 3.05165 0.23149 3.25375 0.1394 3.47617C0.0473113 3.69858 -5.7416e-05 3.93696 5.2228e-08 4.17769C-2.86879e-05 4.41842 0.0473685 4.65679 0.139484 4.8792C0.2316 5.1016 0.366629 5.30368 0.536859 5.47389C0.707089 5.6441 0.909184 5.77911 1.1316 5.8712C1.35402 5.96329 1.5924 6.01065 1.83312 6.0106C2.28189 6.01052 2.71425 5.84188 3.04456 5.5381L3.04325 5.53919L5.64987 6.97638C5.64073 7.07936 5.64087 7.18295 5.65031 7.28591L5.64987 7.27935C5.65027 7.52541 5.69933 7.76896 5.79425 7.99597L5.78966 7.98372L3.75288 9.96188C3.51814 9.85138 3.26201 9.79373 3.00256 9.793H3.00213L2.96712 9.79257C2.72566 9.79257 2.48656 9.84013 2.26348 9.93254C2.04039 10.025 1.8377 10.1604 1.66697 10.3312C1.49623 10.5019 1.36081 10.7046 1.26842 10.9277C1.17604 11.1508 1.1285 11.3899 1.12853 11.6314C1.12853 11.8728 1.17609 12.1119 1.26849 12.335C1.36088 12.558 1.49631 12.7607 1.66704 12.9315C1.83777 13.1022 2.04046 13.2376 2.26353 13.33C2.48659 13.4224 2.72568 13.47 2.96712 13.47C3.20859 13.47 3.4477 13.4225 3.67079 13.3301C3.89389 13.2377 4.0966 13.1023 4.26735 12.9315C4.4381 12.7608 4.57355 12.5581 4.66596 12.335C4.75837 12.1119 4.80594 11.8728 4.80594 11.6314C4.81355 11.38 4.76653 11.13 4.66813 10.8986L4.6725 10.9099L6.70906 8.93157C6.9431 9.03979 7.19803 9.09535 7.45587 9.09432H7.46025C7.63224 9.09332 7.80312 9.06678 7.96731 9.01557L7.95506 9.01885L8.53694 9.92097C8.32458 10.2245 8.21078 10.5861 8.211 10.9565V10.9622C8.211 11.4498 8.40471 11.9175 8.74951 12.2623C9.09432 12.6071 9.56197 12.8008 10.0496 12.8008C10.5372 12.8008 11.0049 12.6071 11.3497 12.2623C11.6945 11.9175 11.8882 11.4498 11.8882 10.9622C11.8882 10.4746 11.6945 10.0069 11.3497 9.66214C11.0049 9.31734 10.5372 9.12363 10.0496 9.12363C9.91426 9.12399 9.77945 9.14036 9.64797 9.17241L9.65978 9.16978L9.0195 8.19788C9.15266 7.98105 9.2359 7.7373 9.26319 7.48432L9.26384 7.47666L10.6835 7.09822C10.9108 7.41176 11.2316 7.64524 11.5999 7.76515C11.9681 7.88506 12.3649 7.88523 12.7332 7.76565C13.1016 7.64606 13.4226 7.41287 13.6501 7.09953C13.8777 6.78619 14.0002 6.40881 14 6.02153C14.0001 5.78082 13.9527 5.54244 13.8607 5.32003C13.7686 5.09761 13.6336 4.89551 13.4634 4.72528C13.2932 4.55505 13.0912 4.42002 12.8688 4.3279C12.6464 4.23578 12.408 4.18838 12.1673 4.18841H12.1494H12.1502L12.15 4.17725Z" fill="#B1BAD3"/>
</g>
<defs>
<clipPath id="clip0_49_3526">
<rect width="14" height="14" fill="white"/>
</clipPath>
</defs>
</svg>
