<svg width="18" height="18" viewBox="0 0 18 18" fill="none" xmlns="http://www.w3.org/2000/svg">
<g id="Frame" clip-path="url(#clip0_49_3566)">
<g id="&#233;&#161;&#181;&#233;&#157;&#162;-1">
<g id="&#233;&#146;&#177;&#229;&#140;&#133;">
<path id="&#229;&#189;&#162;&#231;&#138;&#182;" d="M17.001 13.8682V10.9507H13.626C13.608 10.9497 13.587 10.9492 13.5655 10.9492C12.759 10.9492 12.1055 11.6027 12.1055 12.4092C12.1055 13.2157 12.759 13.8692 13.5655 13.8692C13.587 13.8692 13.608 13.8687 13.629 13.8677H13.626L17.001 13.8682ZM14.4035 12.4107C14.402 12.7782 14.104 13.0757 13.736 13.0757C13.3675 13.0757 13.0685 12.7767 13.0685 12.4082C13.0685 12.0397 13.3675 11.7407 13.736 11.7407C14.1045 11.7407 14.4035 12.0397 14.4035 12.4082C14.4035 12.4092 14.4035 12.4097 14.4035 12.4107Z" fill="white"/>
<path id="&#232;&#183;&#175;&#229;&#190;&#132;" d="M3.60656 6.01562C3.36206 6.01713 3.16406 6.21563 3.16406 6.46063V6.50813C3.16406 6.75263 3.36206 6.95063 3.60656 6.95063H5.33406C5.14406 6.68113 4.97606 6.37313 4.84506 6.04613L4.83406 6.01562H3.60656Z" fill="white"/>
<path id="&#232;&#183;&#175;&#229;&#190;&#132;_2" d="M13.4197 6.01562C13.2777 6.37312 13.1097 6.68113 12.9102 6.96513L12.9197 6.95063H15.4997V6.01562H13.4197Z" fill="white"/>
<path id="&#232;&#183;&#175;&#229;&#190;&#132;_3" d="M14.8117 5.07797V4.35547H13.7492C13.7457 4.61347 13.7212 4.86297 13.6777 5.10547L13.6817 5.07797H14.8117Z" fill="white"/>
<path id="&#232;&#183;&#175;&#229;&#190;&#132;_4" d="M13.625 10.0135H16.5575V9.2185C16.5575 9.2175 16.5575 9.217 16.5575 9.216C16.5575 8.4835 15.9645 7.89 15.2325 7.8885H3.535C2.801 7.8375 2.225 7.229 2.225 6.4865C2.225 6.4855 2.225 6.484 2.225 6.483C2.224 6.464 2.223 6.4415 2.223 6.4195C2.223 6.3975 2.2235 6.375 2.225 6.3525V6.3555C2.2825 5.6395 2.877 5.08 3.6025 5.078H4.565C4.526 4.8625 4.5025 4.6125 4.5 4.358V4.3555H2.765C1.79 4.357 1 5.1475 1 6.123V15.398C1.0015 16.244 1.6865 16.929 2.5325 16.9305H15.23C15.963 16.9305 16.5575 16.336 16.5575 15.603V14.8055H13.625C13.602 14.8065 13.575 14.807 13.5475 14.807C12.2235 14.807 11.15 13.7335 11.15 12.4095C11.15 11.0855 12.2235 10.012 13.5475 10.012C13.5745 10.012 13.602 10.0125 13.629 10.0135H13.625Z" fill="white"/>
<path id="&#232;&#183;&#175;&#229;&#190;&#132;_5" d="M12.4275 4.306C12.4275 4.305 12.4275 4.3035 12.4275 4.3025C12.4275 2.4785 10.949 1 9.12501 1C7.30101 1 5.82251 2.4785 5.82251 4.3025C5.82251 5.383 6.34151 6.3425 7.14401 6.945L7.15251 6.951H11.0975C11.9085 6.345 12.4275 5.3875 12.4275 4.3085C12.4275 4.3075 12.4275 4.306 12.4275 4.306Z" fill="white"/>
</g>
</g>
</g>
<defs>
<clipPath id="clip0_49_3566">
<rect width="18" height="18" fill="white"/>
</clipPath>
</defs>
</svg>
