<svg width="14" height="14" viewBox="0 0 14 14" fill="none" xmlns="http://www.w3.org/2000/svg">
<g id="Frame" clip-path="url(#clip0_49_3548)">
<path id="Vector" d="M7 0C3.136 0 0 3.136 0 7C0 10.864 3.136 14 7 14C10.864 14 14 10.864 14 7C14 3.136 10.864 0 7 0ZM12.558 6.3H10.136C10.059 4.529 9.681 2.947 9.114 1.813C10.955 2.562 12.306 4.263 12.558 6.3ZM1.442 7.7H3.864C3.941 9.471 4.319 11.053 4.886 12.187C3.96606 11.811 3.16247 11.1975 2.55736 10.4091C1.95226 9.62077 1.56736 8.68587 1.442 7.7ZM3.864 6.3H1.442C1.694 4.263 3.045 2.562 4.886 1.813C4.319 2.947 3.948 4.529 3.864 6.3ZM7.952 11.375C7.714 11.9 7.469 12.243 7.266 12.432C7.168 12.523 7.098 12.565 7.056 12.586C7.021 12.6 7.007 12.6 7 12.6C6.993 12.6 6.979 12.6 6.944 12.586C6.902 12.565 6.832 12.523 6.734 12.432C6.531 12.243 6.286 11.9 6.048 11.375C5.642 10.465 5.341 9.184 5.264 7.7H8.729C8.659 9.184 8.358 10.465 7.952 11.375ZM5.264 6.3C5.334 4.816 5.635 3.535 6.048 2.625C6.286 2.1 6.531 1.757 6.734 1.568C6.832 1.477 6.902 1.435 6.944 1.414C6.979 1.4 6.993 1.4 7 1.4C7.007 1.4 7.021 1.4 7.056 1.414C7.098 1.435 7.168 1.477 7.266 1.568C7.469 1.757 7.714 2.1 7.952 2.625C8.358 3.535 8.659 4.816 8.736 6.3H5.264ZM9.114 12.187C9.674 11.053 10.052 9.471 10.136 7.7H12.558C12.306 9.737 10.955 11.438 9.114 12.187Z" fill="#B1BAD3"/>
</g>
<defs>
<clipPath id="clip0_49_3548">
<rect width="14" height="14" fill="white"/>
</clipPath>
</defs>
</svg>
